<?xml version="1.0" encoding="utf-8"?>
<!-- Generator: Adobe Illustrator 19.1.0, SVG Export Plug-In . SVG Version: 6.00 Build 0)  -->
<!DOCTYPE svg PUBLIC "-//W3C//DTD SVG 1.1//EN" "http://www.w3.org/Graphics/SVG/1.1/DTD/svg11.dtd">
<svg version="1.1" xmlns="http://www.w3.org/2000/svg" xmlns:xlink="http://www.w3.org/1999/xlink" x="0px" y="0px"
	 viewBox="0 0 372 710" enable-background="new 0 0 372 710" xml:space="preserve">
<g id="Layer_1">
</g>
<g id="Layer_2">
	<g>
		<path d="M355.1,259.9c0-0.8-0.4-1.6-0.8-2.3c-0.5-1.4-1.6-2.4-3.4-2.8c-14.5-2.6-27.7-8.2-35.9-21.2c-3.4-5.3-5.9-11.2-10-16.1
			c-0.8-0.9-1.6-1.7-2.5-2.5c7.1-1.6,13.9-4.8,17.9-8.1c2.6-2.2,1-6.4-1.7-7.4c-0.6-0.6-1.3-1.1-2.2-1.4c-0.1,0-0.2-0.1-0.3-0.1
			c-0.2-0.1-0.4-0.2-0.6-0.3c-0.6-0.3-1.1-0.7-1.6-1c0,0-0.1,0-0.1-0.1c-0.2-0.2-0.4-0.4-0.7-0.6c-0.5-0.4-1-0.8-1.5-1.2
			c-0.5-0.4-1.2-0.8-1.8-1c-5.5-5.5-10.3-11.6-14.7-17.9c7.7-0.2,14.9-2.8,21.8-8.1c8.8-6.8,17.9-17.2,14.4-29.2
			c-3.3-11.3-14.3-14.2-24.7-11.8c-5.7,1.3-10.9,4-16.6,5.3c-8.1,1.8-15.9,0.6-24.1,0.4c-0.2-0.3-0.5-0.6-0.7-0.9
			c6.9-2.2,13.4-7.7,18-12.4c7.8-8,12.6-19.1,10.7-30.4c-2-11.3-11.6-18.2-15.6-28.5c-1.9-4.9-2.6-11.1-0.1-15.9
			c2.8-5.3,8.1-6.6,13.5-7.7c4.3-0.9-1.4-15.8-28.8-14.4c-10.3,0.5-17.3,9.9-19.2,20.1c-1.9,10.7,1.5,21.7,2.2,32.4
			c0.3,5.4,0.2,10.9-1.6,16.1c-1.8,5.1-5.7,8.7-8.1,13.4c-4.5-2.2-9.3-4-14.1-5.7c-11.5-3.9-23.7-7.5-35.9-8
			c-12.2-0.5-24.8,1.9-36.3,6c-8.8,3.2-16.3,7.6-22.9,13c-0.4,0.3-2.8-0.9-4.1-1.4c-14.8-6.1-14.4-21.9-9.9-35.1
			c2-5.8,5.4-11,5.9-17.4c0.4-5.4-1.2-11-3.6-15.8c-9.1-18.3-32.6-16.3-47.9-8.9c-6.1,3-2.3,8.7,0.4,8.6c5.2-0.1,11.4,2.6,14.1,7.3
			c3.6,6.3-1.8,13.3-5.1,18.5c-5.8,9.2-10.6,19.4-12.1,30.3c-1.8,13.3,3.4,27.6,13.3,36.5c-5.4-2-10.4-4.7-16.2-5.7
			c-12.6-2-23.8,6.4-23.8,19.6c0,15.6,17.9,33.9,34.4,34.3c-2.3,2.3-4.9,4.4-7.6,5.9c-6.1,3.3-13.4,4.2-20,6.6
			c-2.2,0.8-3.1,2.6-3.2,4.4c-0.5,1.2-0.3,2.7,0.7,3.8c2.4,2.7,6.8,5.3,10,7.3c4.1,2.5,8.8,3.4,13.5,3.9c3.7,0.4,7.1,0.4,10.3-0.1
			c-4,4.3-12.3,7.4-16.2,10.2c-8.9,6.4-18,13.1-24.9,21.8c-13,16.3-13.8,38-3.9,56.1c0.4,0.8,0.9,1.3,1.5,1.7
			c1.8,2.1,5.6,1.9,7.1-0.4c-0.8,1.9-1.7,3.8-2.5,5.7c-2.2,5.1-4.3,9.9-5.2,15.4c-1.7,10.2-1.5,21.2,1.3,31.2
			c2.3,8,8.7,18.9,18.5,17.6c3.9-0.5,2.1-12.1,8.6-22.9c-0.1,1.7-0.2,3.4,0,5.1c0.7,6.8,4.1,12.4,7.2,18.3c0.6,1.2,1.5,1.9,2.5,2.2
			c1.9,1.5,5.1,1.3,7-0.5c-1.1,11.3-3.2,22.7-5.2,33.6c-2.7,14.4-8.7,29.5-23,35.7c-0.3,0.1-9.6,6.9-4.2,9
			c13,5.1,25.7,13.5,40.1,8.7c4-1.3,7.5-3.3,10.7-5.7c-1.7,7.1-2.6,14.4-3,21.1c-0.8,15.9,3.8,32.7,18.6,40.7
			c2.4,2.3,7.7,1.2,7.9-3.2c0.6-10.5,0.7-18.4,7.4-27c3-3.8,6.4-7,10.1-9.9c-0.3,1.6-0.5,3.2-0.5,4.9c-0.1,4.6,1,9,2.3,13.4
			c0,4.4,0.4,8.7,1,12.9c1.4,9.9-4,16.9-5.5,26.3c-2.2,13.9,11.5,20.2,23.3,21.1c12.1,1,25.6-4.6,22.8-18.7
			c-1.8-9.3-3.4-18.7-4.8-28.1c-1.6-10.1-4.2-22.1,0.4-31.9c0.2-0.3,0.2-0.7,0.3-1c4.8,6.6,10.5,12.7,17,17.5
			c-0.2,4.5,0.8,9.1,1.3,13.8c0.9,9.3-3,16.9-4.5,25.8c-2.2,12.9,4.1,21.5,17.3,22.7c12.8,1.2,21.3-6.5,22.6-19
			c1.2-11.5-3.6-22.2-2.4-33.4c8.6-1.7,5.5-7.7,1-10.6c-5.6-3.5-4.8-13.3-2.1-20.2c3.2,4.5,5.7,10.2,8.2,14.5
			c3.9,6.7,4.1,13.9,4.4,21.4c0,0.9,0.2,1.7,0.6,2.3c-0.7,2.2,0.4,5,3.5,4.9c14.2-0.5,20.7-16.7,23.3-28.5c1.9-8.5,2-17.2,0.8-25.7
			c2.3,1.1,4.9,1.8,7.8,2.2c34.9,5.2,42.6-22.4,36.8-24.4c-7.5-2.6-13.9-10.2-18.7-16.1c-6.2-7.7-6.8-16.1-6-25.6
			c0.9-10.4,3.8-20.5,4.3-31c0-0.2,0-0.5,0-0.7c1.7,5.5,2,11.5,0.7,17.1c-1.6,6.6,12.2,3,15.8-9.4c1.6-5.5,2.1-11.5,2.3-17.1
			c0.3-5.7,0.1-11.5-1.2-17.1c-0.2-0.9-0.4-1.7-0.7-2.5c2.6,2.2,5.1,4.6,8.1,6.4c16,9.3,27.8,5.3,27.2,0.2c-1.1-9.5-1.2-18.5-1-28.1
			c0.2-8.9-0.4-17.7-3.8-26c-1.9-4.6-4.5-9.4-7.8-13.9c4,0,8.2-0.8,11.4-1.7C348.5,271.8,355.6,266.8,355.1,259.9z M296.6,142.8
			c5.5-1.6,15.1-7.5,20.8-4.3c9.3,5.3-4,17.3-8.3,20.6c-3.7,2.8-7.5,5.2-12.2,5.9c-2.9,0.4-5.8,0.4-8.7,0.5
			c-4.4-6.8-8.6-13.6-13.1-20.3C282.2,145.7,289.8,144.8,296.6,142.8z M61.2,162.7c-5.3-3.9-11.7-11.6-9.8-18.7
			c2.6-9.4,14.5-2.8,20.1-0.4c8.1,3.6,17,4,25.7,3.3c-4.1,6.5-8.2,13.1-12.8,19.3c-1-0.4-2.1-0.4-3.2,0
			C74,168.7,67.4,167.2,61.2,162.7z M40.8,300c0.1-0.4,0.1-0.7,0.1-1.1c0-10,7.5-19.6,16.4-25.9c-3,4-6.5,7.9-9.1,12.1
			C45.4,289.8,43,294.9,40.8,300z M337.1,264.3c-4.7,0.7-24.9-5.8-31.1-6.8c-5.5-0.9,18.7,26.5,22.6,40.5c3.5,12.6-0.3,26,1.3,38.8
			c-0.7-0.3-1.5-0.6-2.2-1c-2.9-1.7-5.3-3.9-7.8-6.2c-5.3-4.8-10.8-10.1-17.8-11.9c-2.4-0.6-4.3,0.2-5.6,1.6c-2.2,0.9-3.9,3-3.4,5.9
			c0.8,4.6,3.4,8.2,4.9,12.5c1.8,5.5,2.1,11.6,2,17.3c0,0.4,0,0.9,0,1.3c-3.1-7.1-7.9-13.1-14.4-15.4c-0.6-0.7-3.8,12.6-3.4,18.8
			c0.4,6.2-1,12.3-2.4,18.3c-2.5,10.9-5.8,22.4-4.7,33.7c1,9.8,6.3,17.1,12.7,24.2c3.2,3.4,7.2,7.5,11.7,10.3
			c-1.3,1.2-2.6,2.4-3.9,3.7c-5.8,2.8-13.3,2.3-19.5,1.3c-6.8-1.1-10.3-5.7-14.3-10.5c-0.9-2.3-1.9-4.6-3-6.9
			c-2.5-5.2-11.8-2.9-11.2,3c1.6,14.9,10.9,28.2,10.1,43.6c-0.3,6-2.6,17.2-7.8,23.2c0.1-8.1-0.6-15.6-4.7-23.2
			c-4.2-7.9-8.5-15.6-15.9-20.5c-1.3-1.8-10.1-0.1-10.2,2.3c-5.2,7.9-7.4,18.6-4.9,27.7c-14.7-4.1-25.9-15.5-34.5-28.7
			c-0.3-0.4-0.6-0.8-0.9-1.1c-2-3.6-20.4,23.3-29.8,31.1c-0.9-3.2-1.6-6.5-1.4-9.8c0.3-6,1.3-25.9-2.6-23.4
			c-10.3,6.7-19.8,13.6-27,23.6c-5.1,7.1-6.7,13.9-7.2,21.5c-15.3-19,0-49.1,6.8-69.1c2.5-7.4-25.6,13-36.2,16.6
			c-7.9,2.7-15.2,0.4-22.3-2.6c11.9-7.4,18.5-20.5,21.8-34.2c2.4-9.7,3.3-19.7,4.9-29.5c1.8-11.2,3.2-22.4,2.5-33.8
			c-0.3-6-13.9,5.8-15.9,9.2c-1.4-3.2-2.4-6.4-2.2-10.1c0.2-6.1-2.9-24.4-5.9-21.5c-7.6,7.4-14.4,17.5-16.3,28.3
			c-0.1-0.2-0.2-0.3-0.3-0.5c-2.1-3.9-3.1-8.5-3.8-12.8c-1.2-7.7-1.5-16.7,0.3-24.3c2.9-12.1,9-24.6,16.4-34.6
			c4.3-5.8,13-14.1,12.8-21.9c-0.1-3-2.9-5.3-5.9-4.5c-12.1,3.4-25.1,13.1-31.5,25.1c-0.9-5.6-0.7-11.4,1-17.1
			c3.2-10.3,10.2-17.4,17.6-24.8c6-6.1,12.4-11.4,18.8-16.9c4.2-3.7,16.2-17.7,18.3-19.5c2.7-2.4-10.9-2.8-14.8-1.9
			c-4.8,1.2-10.5,0.4-15.2-0.8c-1.8-0.5-3.5-1.5-5.4-2.6c7.4-2.1,14.4-4.3,20.8-9.7c9.1-7.7,16.4-17.4,23.2-27.1
			c11.7-16.8,21.3-37.4,39.2-48.6c10-6.2,22.4-9.9,34.1-11.4c12.2-1.5,23.6,0.7,35.4,4.1c11.2,3.2,23.6,6.6,32.2,14.9
			c7.4,7.1,13.9,16,19.7,24.4c13.6,19.4,24.1,41.1,43.9,54.9c0.1,0.1,0.2,0.2,0.3,0.3c0.8,0.7,1.6,1.4,2.4,2.1
			c-2.9,1.3-5.9,2.4-9.2,3c-7.7,1.3-12-0.7-17.9-5.5c-2.7-2.2-1.3,12.3,3.2,14c6.9,4.4,12.7,8,16.9,15.2c3.6,6.1,6.6,12.2,11.5,17.4
			c7.1,7.6,17,13.9,27.5,16.5C338.8,264,337.9,264.2,337.1,264.3z"/>
		<path d="M262.3,204c-8.7-3.6-14.9-12.6-16.6-24.1c-0.2-1.6-1.5-2.7-3.2-2.8c-1.6-0.1-1.7,21.3,5,28.5c-7.8-0.7-13.9-4.1-18.2-10.1
			c0-0.4-5.5-4.9-6.6-3.9c-1.4,0.6-1.7,5.8-1.3,7.1c0.4,6.4,2.2,12.8,5.1,17.9l0.4,0.7c0.7,1.2,1.4,2.5,2.3,3.9c0,0-0.1,0-0.1,0
			c-0.4-0.1-0.7-0.2-1.1-0.2c-5.5-0.9-10.7-3-15.5-6.3c-6.9-4.6-17.2-20.7-19.1-20.8c-2,0-3.7,1.2-4.1,3c-0.8,3.2-1.9,8.7-1.4,14
			c-0.5-0.4-1-0.8-1.5-1.2c-3.1-3-7.6-11.3-8.5-11.6c-0.9-0.3-2-0.2-2.9,0.2c-2,0.4-6,11.3-28.3,20.8c3.9-5.8,6-13.2,5.7-20.3
			c-0.1-2.6-2.3-4-4.2-3.9c-1.9,0-3.9,4.1-3.9,4.1c-4.8,6.6-9.8,10-15.2,10.4c-1.4,0.1-2.8,0-4.1-0.2c6-6.1,4.6-28.5,3.1-28.6
			c-1.4-0.1-5.5,14.9-6.4,17.2c-4.8,12.4-13.5,11.3-12.6,15c0.4,1.5,4,7.2,26,5.3c0.6-0.1,1.2-0.4,1.8-0.7c-2.6,7.2-13,11.5-6.9,13
			c1.7,0.4,3.5,0.5,5.3,0.5c0.5,0,1.1,0,1.7-0.1c-0.3,0.8-0.6,1.6-0.9,2.4c-1.1,2.7-2.2,5.5-2.9,8.4c-1,3.9-1.4,8.2-1.5,13.2
			c-0.1,10,2.3,18.1,7.8,25.6c10.9,15,26.6,23.2,44.5,23.2c0.5,0,1,0,1.5,0c26.5-0.7,42.4-13.8,47.9-24.8
			c8.4-16.7,9.3-33.5,2.8-48.1c0,0,0,0,0,0c1.2-0.1,5.6-2.6,6.2-3.9c0.7-1.5,0.4-3.2-0.8-4.4c-3.1-3.1-5.8-6.9-7.8-11.1
			c3.6,2,7.6,3.4,11.5,4.1c5.8,0.9,16.4-3.1,16.9-3.2c1.8-0.2,2.9-1.4,3.1-3.1C265.3,206.9,264.1,204.8,262.3,204z M198.9,221.4
			c1-0.7,1.6-1.6,1.8-2.6c0.1-0.5,0.1-1.3-0.2-2.1c2.3,2.1,4.5,3.9,6.3,5.1c5.2,3.7,10.8,6.2,16.5,7.6c4,7.7,7,14.4,6.9,22.4
			c-0.2,7.7-2.9,17.6-6.5,23.6c-8.3,13.8-27.6,18.5-41.5,18.2c-15.2-0.3-28.8-8.1-37.2-21.5c-6.7-10.7-4.3-21.6-1.8-33.1
			c0.7-3.2,1.4-6.4,1.9-9.7c7.1-1.9,14-5.4,19.4-8.4c3.7-2.1,8.8-5.2,12.1-9.3c3.9,5.8,10.5,11.4,18.8,11.6
			C197,223.3,198.2,222.6,198.9,221.4z"/>
		<path d="M182.5,265.9c-6-0.8-9.4-4.5-13.3-8.8l-1.1-1.2c-3.9-4.2-7.7-5.7-12.8-5c-2.5,0.3-3.6,2.6-3.4,4.5
			c0.2,1.8,1.7,3.5,4.1,3.3c3.7-0.4,6.4,2.8,9.2,6.1c1.5,1.8,3.1,3.7,4.9,4.9c4.5,3.2,9.7,4.8,15.6,4.7c0.7,0,1.4,0,2-0.1
			c5.5-0.4,10.2-2.2,14.2-5.3c1.7-1.3,3.1-2.6,4.5-3.9c3.4-3.1,6.3-5.8,11-7.4c2.1-0.7,3.1-2.7,2.5-4.8c-0.6-1.9-2.5-3.5-5.1-2.8
			c-4.9,1.3-8.8,3.6-12.9,7.5C195.5,263.6,190.3,266.9,182.5,265.9z"/>
	</g>
	<g>
		<path d="M41.4,580.5v39.9c5.5-4,11.8-5.9,18.8-5.9c6.2,0,11.9,1.5,17,4.6c5.1,3.1,9.1,7.4,11.9,13s4.2,11.8,4.2,18.6
			c0,11.7-3.5,20.9-10.4,27.6c-7,6.7-16.5,10.1-28.6,10.1c-10.9,0-21.4-2-31.7-6V580.5H41.4z M41.4,672.1c4,1.4,8.7,2.1,14,2.1
			c5.7,0,10.3-2.1,13.7-6.3c3.4-4.2,5.1-10,5.1-17.4c0-6.7-1.7-12.1-5.1-16c-3.4-4-7.9-6-13.5-6c-2.6,0-5,0.5-7.2,1.4
			c-2.2,1-4.5,2.5-7,4.5V672.1z"/>
		<path d="M127.6,580.5V687h-18.7V580.5H127.6z"/>
		<path d="M178.8,614.5c10.5,0,18.7,3.4,24.8,10.1c6.1,6.7,9.1,16,9.1,27.8v2.8h-50.4c0.8,6.4,3.1,11.2,7.1,14.7
			c4,3.4,9.5,5.1,16.4,5.1c4.5,0,8.8-0.8,12.9-2.3c4.1-1.5,8.4-3.9,12.8-7v13.9c-8.3,5.9-18.4,8.8-30.3,8.8
			c-11.2,0-20.4-3.4-27.5-10.1c-7.1-6.8-10.7-15.7-10.7-27c0-10.8,3.3-19.7,9.9-26.5C159.7,617.9,168.3,614.5,178.8,614.5z
			 M195.2,643.8c-0.5-5.2-2.1-9.2-4.7-12.2c-2.6-2.9-6.3-4.4-10.9-4.4c-4.7,0-8.5,1.4-11.4,4.2c-2.9,2.8-4.7,6.9-5.4,12.3H195.2z"/>
		<path d="M253.1,614.5c9.1,0,16.1,1.9,21,5.8c4.8,3.9,7.2,9.3,7.2,16.3v34.8c0,2.7,1.1,4,3.3,4c0.9,0,2.2-0.4,3.8-1.2
			c1.7-0.8,3-1.7,4.2-2.7v10.8c-6.6,4-12.5,6-18,6c-3.4,0-5.9-0.6-7.7-1.7c-1.8-1.1-3.1-3.1-3.8-5.9c-7.2,5.1-14.4,7.6-21.6,7.6
			c-5.1,0-9.5-1.7-13.2-5.2c-3.7-3.5-5.5-7.6-5.5-12.4c0-6.1,1.8-11,5.5-14.6c3.7-3.6,10.1-6.7,19.2-9.3l15.2-4.4v-3.3
			c0-7-4.2-10.4-12.6-10.4c-4.3,0-8.6,1-12.9,3c-4.3,2-8.2,4.9-11.7,8.8v-16.8C233.2,617.5,242.5,614.5,253.1,614.5z M241.7,667.9
			c0,2.6,0.8,4.7,2.5,6.2c1.6,1.6,3.7,2.4,6.1,2.4c4.1,0,8.2-1.9,12.3-5.6v-18.7c-5.2,1.8-9.3,3.5-12.3,5c-3,1.6-5.2,3.2-6.6,4.8
			C242.4,663.6,241.7,665.6,241.7,667.9z"/>
		<path d="M322.4,596.9h1.5v18.9h24.4V630h-24.4v32.8c0,3.2,1,5.8,2.9,7.8c1.9,2,4.6,3,7.9,3c4.4,0,9.4-1.6,15.1-4.7v15
			c-6.8,3-13.1,4.5-19,4.5c-8,0-14.3-2.2-18.8-6.6c-4.5-4.4-6.7-10.3-6.7-17.8V630h-11.1v-3L322.4,596.9z"/>
	</g>
</g>
</svg>
